<svg xmlns="http://www.w3.org/2000/svg" viewBox="0 0 24 24"><path fill="#25D366" d="M12 2C6.48 2 2 6.48 2 12a9.94 9.94 0 0 0 1.67 5.62L3 22l4.45-1.17A9.94 9.94 0 0 0 12 22c5.52 0 10-4.48 10-10S17.52 2 12 2z"/><path fill="#fff" d="M17.6 14.28c-.28-.14-1.66-.81-1.92-.9-.26-.09-.45-.13-.64.13-.19.25-.72.83-.88 1.01-.15.19-.3.21-.55.07-.25-.14-1.08-.4-2.05-1.26-.76-.68-1.24-1.52-1.38-1.79-.14-.27-.02-.42.11-.56.12-.12.28-.29.42-.44.15-.15.2-.27.3-.44.1-.17.05-.32-.03-.45-.08-.12-.69-1.14-.95-1.56-.25-.4-.48-.34-.68-.35l-.56-.01c-.19 0-.47.07-.72.34-.25.27-.96.98-.96 2.39 0 1.4.98 2.75 1.12 2.94.14.19 2.02 3.06 4.92 4.38 1.37.61 2.44.97 3.28 1.24 1.38.42 2.64.36 3.64.22.11-.05.33-.14.38-.27.05-.13.05-.23.03-.26-.02-.03-.24-.09-.5-.2z"/></svg>
